
<svg xmlns="http://www.w3.org/2000/svg" enable-background="new 0 0 2000 2000" viewBox="17.279 222.787 1982.893 1496.722"><g opacity=".53"><path fill="#afe1f9" d="M172.84,749.69L172.84,749.69c0-104.95,89.16-190.04,199.15-190.04h41.54    c-19.43-16.05-31.74-39.74-31.74-66.19l0,0c0-48.34,41.07-87.53,91.73-87.53h138.26c-13.98-11.49-22.87-28.46-22.87-47.45    c0-34.59,29.39-62.63,65.63-62.63h347.17c36.25,0,65.64,28.04,65.64,62.63c0,34.59-29.39,62.63-65.64,62.63H871.72    c-24.2,15.76-40.1,42.28-40.1,72.35l0,0c0,26.45,12.31,50.14,31.74,66.19h213.79c109.99,0,199.15,85.08,199.15,190.04l0,0    c0,104.95-89.16,190.04-199.15,190.04h283.22c50.66,0,91.73,39.19,91.73,87.53c0,48.34-41.07,87.53-91.73,87.53h115.4    c126.08,0,230.74,87.23,251.52,201.87h40.41c78.61,0,142.34,60.81,142.34,135.83v13.76c0,75.02-63.73,135.83-142.34,135.83    h-291.92H520.38h-92.21c-141.01,0-255.33-109.08-255.33-243.65v0c0-134.56,114.32-243.65,255.33-243.65h447    c-50.66,0-91.73-39.19-91.73-87.53c0-48.34,41.07-87.53,91.73-87.53H371.99C262,939.73,172.84,854.65,172.84,749.69z"/><ellipse cx="1292.45" cy="358.48" fill="#afe1f9" rx="68.06" ry="67.66"/></g><path fill="#afe1f9" d="M1711.8,470.02c-5.02-0.7-11.95-1.13-20.04,0c-9.16,1.28-16.42,4.1-21.3,6.44   c-12.15-28.19-40.04-46.53-70.73-46.53c-36.43,0-66.45,20.32-70.73,46.53h-24.22c-22.14,0-40.09,17.95-40.09,40.09   c0,22.14,17.95,40.09,40.09,40.09h208.32c21.84-2.34,38.64-19.74,40.09-40.09C1754.81,493.65,1736.64,472.12,1711.8,470.02z"/><path fill="#075929" d="M591.31,1584.08v-146.07H319.9v-93.28l231.82-373.18h175.28v359.04h73.5v107.43h-73.5v146.07H591.31z       M591.31,1330.58v-135.69c0-36.75,1.88-74.46,4.71-114.05h-3.77c-19.79,39.59-35.81,75.4-56.54,114.05l-81.99,133.8v1.89H591.31      z"/><path fill="#075929" d="M1313.08,1274.97c0,189.43-76.34,319.47-232.77,319.47c-158.31,0-228.05-142.29-229-315.68      c0-177.18,75.39-317.6,233.71-317.6C1249,961.16,1313.08,1107.23,1313.08,1274.97z M995.49,1278.76      c-0.95,140.4,32.98,207.31,88.59,207.31c55.59,0,85.75-69.73,85.75-209.2c0-135.71-29.21-207.33-86.7-207.33      C1030.37,1069.53,994.55,1136.44,995.49,1278.76z"/><path fill="#075929" d="M1637.18,1584.08v-146.07h-271.41v-93.28l231.82-373.18h175.28v359.04h73.5v107.43h-73.5v146.07H1637.18z       M1637.18,1330.58v-135.69c0-36.75,1.88-74.46,4.71-114.05h-3.76c-19.8,39.59-35.82,75.4-56.55,114.05l-81.99,133.8v1.89      H1637.18z"/><path fill="#075929" d="M549.77,1584.08v-146.07H278.36v-93.28l231.82-373.18h175.28v359.04h73.5v107.43h-73.5v146.07H549.77z      M549.77,1330.58v-135.69c0-36.75,1.88-74.46,4.71-114.05h-3.77c-19.79,39.59-35.81,75.4-56.54,114.05l-81.99,133.8v1.89H549.77z     "/><path fill="#075929" d="M1271.54,1274.97c0,189.43-76.34,319.47-232.77,319.47c-158.31,0-228.05-142.29-229-315.68     c0-177.18,75.39-317.6,233.71-317.6C1207.46,961.16,1271.54,1107.23,1271.54,1274.97z M953.95,1278.76     c-0.95,140.4,32.98,207.31,88.59,207.31c55.59,0,85.75-69.73,85.75-209.2c0-135.71-29.21-207.33-86.7-207.33     C988.83,1069.53,953.01,1136.44,953.95,1278.76z"/><path fill="#224caa" d="M1038.77,1594.44c11.98,0,23.42-0.85,34.46-2.34c-11.46-25.02-41.44-85.66-41.44-85.66l32.38-24.45     c-6.72,2.68-13.92,4.08-21.64,4.08c-21.6,0-39.9-10.14-54.19-30.72l-24.63,3.39L932.18,1567     C961.87,1584.57,997.24,1594.44,1038.77,1594.44z"/><path fill="#075929" d="M1595.64,1584.08v-146.07h-271.41v-93.28l231.82-373.18h175.28v359.04h73.5v107.43h-73.5v146.07H1595.64z      M1595.64,1330.58v-135.69c0-36.75,1.88-74.46,4.71-114.05h-3.76c-19.8,39.59-35.82,75.4-56.55,114.05l-81.99,133.8v1.89H1595.64     z"/><path fill="#34455d" d="M1064.14,1425.37c0,0,25.08,13.51,26.46,20.31l-27.64-8.84L1064.14,1425.37z"/><polygon fill="#f4c1ca" points="915.62 1598.89 914.89 1608.43 927.48 1609.39 931.22 1600.08"/><path fill="#1b1943" d="M931.79,1603.72c0,0-1.29,16.73-3.07,21.66l-54.34-3.36c0,0,1.01-11.32,21.25-10     c2.57,0.17,5.08-0.52,6.9-1.94c4.14-3.25,9.12-9,11.49-8.68L931.79,1603.72z"/><polygon fill="#f4c1ca" points="1019.1 1600.68 1019.44 1610.24 1032.06 1609.79 1034.73 1600.12"/><path fill="#1b1943" d="M1036.21,1604.41c0,0-0.09,16.78-1.52,21.82l-54.44,0.52c0,0,0.2-11.37,20.49-11.49     c2.58-0.02,5.03-0.88,6.74-2.43c3.9-3.53,8.46-9.62,10.84-9.48L1036.21,1604.41z"/><path fill="#314452" d="M1086.38,1428.9c0,0,14.79,30.1-7.04,44.55c-21.83,14.45-74.56,13.68-74.56,13.68l32.18,115.11l-22.55-0.38     c0,0-44.53-110.02-50.69-109.72c-6.16,0.29-29.78,108.16-29.78,108.16l-25.18-1.93c0,0,19-136.54,25.96-147.61     c13.18-20.94,69.55-17.01,79.06-20.88C1023.28,1425.99,1086.38,1428.9,1086.38,1428.9z"/><path fill="#153047" d="M990,1462.67c-19.44,4.85-26.28,29.46-26.28,29.46c1.12-0.05,3.52,3.57,6.68,9.5     C973.27,1477.94,990,1462.67,990,1462.67z"/><path fill="#1c1715" d="M1042.47,1201.76c0,0,9.8-5.07,17.26,14.7c7.46,19.77,7.85,50.58,5.16,61.08c0,0,21.67,23.33,3.96,38.58    c0,0-24.4,25.66-26.01,32.27c-0.63-1.55-11.1-20.4-28.07-21.45c-16.97-1.05-58.78-44.97-36.48-51.8c0,0-1.66,7.1,5.95,5.4    c7.61-1.71,2.81-27.9,2.89-37.17c0.08-9.27,5.66-32.1,21.88-41.79C1025.24,1191.9,1043.92,1192.57,1042.47,1201.76z"/><path fill="#eba97a" d="M1014.78,1262.73c0,0-3.51,13.05-5.81,14.8c0,0-2.31,6.02,4.49,23.03c6.8,17.01,24.03,7.51,26.79,2.87    c2.76-4.64,8.84-13.53,3.29-22.37c0,0-7.6-5.52-3.63-17.51C1039.91,1263.55,1015.98,1258.73,1014.78,1262.73z"/><path fill="#fdc596" d="M1042.87,1263.85c0,0-11.53,8.94-20.96,5.49c-9.43-3.45-17.78-12.57-20.37-21.7    c-2.58-9.13,1.61-27.44,7.95-33.96c6.34-6.52,29.91-10.8,36.53-2.31C1052.65,1219.87,1055.22,1254.1,1042.87,1263.85z"/><path fill="#f6f6f6" d="M1039.66,1276.69c0,0-20.62,9.03-30.6-1.27c0,0-43.23,43.31-18.69,156.9c0,0,82.44,4.25,84.08,4.54    c1.63,0.29-5.92-24.63-15.56-31.55c-9.58-6.87-64.9-38.74-19-126.81C1040.19,1277.91,1040.14,1277.57,1039.66,1276.69z"/><path fill="#dce2ea" d="M1047.4,1435.26c-65.25-14.81-45.08-81.54-47.31-94.91c-1.85-11.12,16.57-47.91,22.83-60    c-5.02,0.04-10.17-1.11-13.87-4.92c0,0-43.23,43.31-18.69,156.91c0,0,32.76,1.69,57.39,3.01    C1047.63,1435.31,1047.52,1435.28,1047.4,1435.26z"/><path fill="#fece46" d="M1040.27,1276.44c0,0,5.41,0.57,12.84,2.8c2.99,0.91,23.17,8.28,21.79,40.36    c-1.49,34.64-4.63,63.84,0.35,75.74c4.99,11.9,16.35,31.68,16.97,53.02c-25.72-20.73-56.81-43.01-73.84-78.8    C994.71,1319.81,1040.27,1276.44,1040.27,1276.44z"/><path fill="#d7ad39" d="M1058.8,1281.92c6.9,4.29,17.09,14.57,16.1,37.68c-1.49,34.64-4.63,63.84,0.35,75.74    c4.99,11.9,16.35,31.68,16.97,53.02c0,0-11.13-35.61-29.27-54.24C1062.95,1394.13,1077.52,1319.21,1058.8,1281.92z"/><path fill="#fcc596" d="M1111.04,1432.25c0,0,3.28,4.11,2.46,6.64c-0.74,2.28-0.44,1.49-0.82,2.45c-0.13,0.33-0.34,1-0.34,1    s-2.04,6.23-0.5,7.58c1.55,1.35,3.2,0.39,3.64-3.06c0.45-3.45,6.06-3.75,6.8,1.75c0.74,5.5,3.48,11.47,5.25,9.88    c1.77-1.59,0.3-6.05,0.3-6.05s0.24-0.09,0.54,1.07c0.3,1.16-0.2,4.27,0.61,3.87c0.81-0.4,6.22-2.65,6.05-10.16    c-0.17-7.51-4.49-10.52-6.06-11.98c-1.57-1.46-5.73-7.71-5.78-10.18C1123.19,1425.05,1110.57,1428.04,1111.04,1432.25z"/><path fill="#fece46" d="M1056.91,1285.35c0,0-8.02,24.35,4.24,46.02c12.26,21.67,25.78,63.53,33.69,76.63    c7.91,13.1,16.08,27.55,16.08,27.55l15.57-5.18c0,0-18.78-51.99-26.82-63C1099.66,1367.36,1083.21,1282.03,1056.91,1285.35z"/><polygon fill="#9cd6e2" points="1042.4 1276.42 1024.11 1291.54 1021.19 1280.77 1035.86 1276.64"/><path fill="#9cd6e2" d="M1009.76,1275.42l10.73,4.92l-10.14,11.67C1010.35,1292.01,1005.43,1280.07,1009.76,1275.42z"/><path fill="#1e2b5b" d="M886.75,1351.68l18.4-6.36c1.2-0.42,2.52,0.17,3.03,1.34l22.65,52.9c0.65,1.52-0.37,3.23-2.02,3.37    l-20.99,1.85c-1.06,0.09-2.05-0.51-2.46-1.49l-20.05-48.39C884.76,1353.61,885.43,1352.14,886.75,1351.68z"/><path fill="#fdc596" d="M900.38,1363.64c1.21-1.11,3.15-0.37,3.3,1.26c0.12,1.32-0.06,2.96-0.99,4.74c-2.3,4.39-2.51,9.4-1.46,9.4    c1.04,0,3.97-9.4,7.52-8.67c3.55,0.73-3.76,11.8-2.72,13.26c1.04,1.46,5.01-7.73,6.89-6.06c1.88,1.67-4.39,11.28-3.76,12.53    c0.63,1.25,4.8-3.97,5.22-2.09c0.42,1.88-0.6,5.64-6.88,9.61c0,0-9.41,6.68-14.01,1.67    C889.15,1394.55,887.23,1375.73,900.38,1363.64z"/><path fill="#d7ad39" d="M944.88,1363.11c-7.1,13.52-24.58,11.88-24.58,11.88l0,0l8.57,20.01c24.93,8.65,40.65-12.87,40.65-12.87    c16.29-15.91,22.14-101.88,22.14-101.88C965.77,1287.36,951.98,1349.6,944.88,1363.11z"/><path fill="#fece46" d="M975.85,1310.07c0,0,1.3-8.26,4.09-19.12c0.8-3.12,2.89-6.84,5.77-8.62c6.26-3.86,16.31-5.78,24.05-6.9    c0,0-21.5,81.92-20.03,144.33c1.05,5.49,1.5,10.24,0.63,12.57c0,0-1.99,1.48-12.19,3.01c-9.6,1.44,1.41-35.96,3.31-43.61    C976.27,1361.96,972.8,1341.04,975.85,1310.07z"/><path fill="#442b19" d="M1055.97,1293.14c0,0,9.46,3.66,14.83-3.64c5.37-7.3-3.64-11.69-3.64-11.69s5.86,7.38-2.69,8.31    c-8.55,0.92-8.6-13.43-5.6-21.35c8.67-22.87,3.65-37.91-0.37-46.1c-4.01-8.19-11.15-14.19-11.15-14.19l-4.89-2.73l-3.39,8.3    c0,0,6.15,9.4,9.27,18.08c3.12,8.67,4.44,19.81-2.86,34.18C1038.2,1276.69,1036.37,1290.8,1055.97,1293.14z"/><path fill="#513826" d="M1039.08,1210.07l3.39-8.3l0,0l0,0c0,0,9.79-5.07,17.26,14.7c2.56,6.79,3.9,14.94,4.45,23.14    c-3.35,12.29-12.85,26.46-18.02,38.49c-6.53,15.19,13.44,11.13,13.44,11.13s-6.65,11.26-16.66,2.59    c-11-9.54-1.41-25.28,2.79-33.51c4.2-8.24,3.49-23.85-0.53-32.72C1041.18,1216.7,1039.08,1210.07,1039.08,1210.07z"/><path fill="#442b19" d="M1039.08,1210.07c0,0-22.35-5.92-33.57,21.13c-11.22,27.06,4.89,39.52,2.05,47.86    c-2.83,8.34-10.44,9.54-16.98,0.96c0,0,8.03,5.18,9.23-0.67c1.2-5.85-12.15-14.41-10.93-36.73c0.43-7.84,1.7-14.58,3.16-20.04    c3.43-8.06,8.88-16.17,16.97-21c16.23-9.69,34.91-9.01,33.45,0.18L1039.08,1210.07z"/><g><path fill="#93a2d8" d="M1456.68,701.13c0.05-0.82,0.17-1.62,0.17-2.45c0-30.7-34.33-55.59-76.67-55.59     c-42.35,0-76.67,24.89-76.67,55.59c0,0.83,0.12,1.63,0.17,2.45H1456.68z"/><path fill="#b9c6ea" d="M1310.05,690.36c0,0,6.49-20.21,18.85-24.04h9.12c0,0-10.29,12.26-14.71,23.53L1310.05,690.36z"/><path fill="#b9c6ea" d="M1338.01,660.14c0,0,12.65-10.3,24.12-9.41c0,0-14.71,4.41-16.77,9.41H1338.01z"/><path fill="#6876b8" d="M1414.2,653.67c0,0,38.24,30,0,34.42l32.94,5.3C1447.14,693.38,1448.22,664.26,1414.2,653.67z"/><path fill="#6876b8" d="M1537.19,743.29c0,28.37-70.3,51.38-157.02,51.38c-86.72,0-157.02-23-157.02-51.38    c0-28.38,70.3-51.38,157.02-51.38C1466.89,691.91,1537.19,714.91,1537.19,743.29z"/><ellipse cx="1380.17" cy="741.33" fill="#b9c6ea" rx="147.17" ry="44.71"/><path fill="#93a2d8" d="M1380.17,704.65c70.28,0,127.64,15.12,131,34.12c0.1-0.58,0.16-1.17,0.16-1.76    c0-19.82-58.72-35.89-131.17-35.89c-72.44,0-131.16,16.07-131.16,35.89c0,0.59,0.06,1.18,0.16,1.76    C1252.53,719.78,1309.9,704.65,1380.17,704.65z"/><path fill="#354077" d="M1449.89,795.48c0,14.25-32.26,25.8-72.07,25.8c-39.8,0-72.07-11.55-72.07-25.8s32.26-25.8,72.07-25.8    C1417.62,769.68,1449.89,781.24,1449.89,795.48z"/><path fill="#b9c6ea" d="M1377.82,813.09c-29.66,0-54.54-7.48-61.78-17.61c2.83,12.07,29.39,21.54,61.78,21.54    c32.39,0,58.95-9.47,61.78-21.54C1432.36,805.61,1407.49,813.09,1377.82,813.09z"/><ellipse cx="1380.17" cy="758.19" fill="#545e9b" rx="189.73" ry="42.95"/><path fill="#6876b8" d="M1380.17,727.41c92.68,0,168.47,11.69,174.4,26.47c0.25-0.62,0.42-1.24,0.42-1.87    c0-15.65-78.27-28.33-174.82-28.33c-96.55,0-174.82,12.68-174.82,28.33c0,0.63,0.17,1.25,0.42,1.87    C1211.71,739.1,1287.5,727.41,1380.17,727.41z"/><path fill="#354077" d="M1551.29,758.19c0.09,0.4,0.17,0.8,0.17,1.2c0,16.71-78.27,30.26-174.82,30.26    c-84.25,0-154.56-10.32-171.12-24.05c3.64,16.16,80.42,29.06,174.65,29.06c96.55,0,174.82-13.55,174.82-30.26    C1555,762.27,1553.71,760.2,1551.29,758.19z"/><path fill="#93a2d8" d="M1259.67,757.48c0,8.84-7.17,16.01-16.01,16.01c-8.84,0-16.01-7.17-16.01-16.01     c0-8.84,7.17-16.01,16.01-16.01C1252.51,741.47,1259.67,748.64,1259.67,757.48z"/><path fill="#93d9e1" d="M1255.87,757.48c0,6.74-5.46,12.2-12.21,12.2c-6.74,0-12.2-5.46-12.2-12.2c0-6.74,5.46-12.2,12.2-12.2     C1250.41,745.28,1255.87,750.74,1255.87,757.48z"/><path fill="#d0ebe6" d="M1234.51,753.49h5.63c0,0-4.08,5.26,0.7,12.16C1240.85,765.65,1235.22,767.76,1234.51,753.49z"/><circle cx="1297.2" cy="757.48" r="16.01" fill="#93a2d8" transform="rotate(-76.714 1297.316 757.498)"/><circle cx="1297.2" cy="757.48" r="12.2" fill="#93d9e1" transform="rotate(-45.001 1297.198 757.498)"/><path fill="#d0ebe6" d="M1288.05,753.49h5.63c0,0-4.08,5.26,0.7,12.16C1294.38,765.65,1288.75,767.76,1288.05,753.49z"/><circle cx="1350.74" cy="757.48" r="16.01" fill="#93a2d8" transform="rotate(-45.001 1350.733 757.499)"/><circle cx="1350.74" cy="757.48" r="12.2" fill="#93d9e1" transform="rotate(-80.781 1350.75 757.458)"/><path fill="#d0ebe6" d="M1341.58,753.49h5.63c0,0-4.08,5.26,0.7,12.16C1347.92,765.65,1342.29,767.76,1341.58,753.49z"/><g><path fill="#93a2d8" d="M1420.28,757.48c0,8.84-7.17,16.01-16.01,16.01c-8.84,0-16.01-7.17-16.01-16.01     c0-8.84,7.17-16.01,16.01-16.01C1413.11,741.47,1420.28,748.64,1420.28,757.48z"/><circle cx="1404.27" cy="757.48" r="12.2" fill="#93d9e1" transform="rotate(-76.714 1404.394 757.495)"/><path fill="#d0ebe6" d="M1395.12,753.49h5.63c0,0-4.08,5.26,0.7,12.16C1401.45,765.65,1395.82,767.76,1395.12,753.49z"/></g><g><path fill="#93a2d8" d="M1473.81,757.48c0,8.84-7.17,16.01-16.01,16.01c-8.84,0-16.01-7.17-16.01-16.01     c0-8.84,7.17-16.01,16.01-16.01C1466.65,741.47,1473.81,748.64,1473.81,757.48z"/><circle cx="1457.8" cy="757.48" r="12.2" fill="#93d9e1" transform="rotate(-80.781 1457.82 757.457)"/><path fill="#d0ebe6" d="M1448.65,753.49h5.63c0,0-4.08,5.26,0.7,12.16C1454.99,765.65,1449.36,767.76,1448.65,753.49z"/></g><g><circle cx="1511.34" cy="757.48" r="16.01" fill="#93a2d8" transform="rotate(-45.001 1511.338 757.5)"/><circle cx="1511.34" cy="757.48" r="12.2" fill="#93d9e1" transform="rotate(-76.714 1511.47 757.492)"/><path fill="#d0ebe6" d="M1502.19,753.49h5.63c0,0-4.08,5.26,0.7,12.16C1508.52,765.65,1502.89,767.76,1502.19,753.49z"/></g></g><g><circle cx="317.45" cy="888.54" r="130.65" fill="#6876b8" transform="rotate(-45.001 317.44 888.55)"/><path fill="#545e9b" d="M192.5,926.7c-8.32-27.25-7.27-55.11,1.27-80.17c65.76,175.23,240.65,99,241.38,98.68    c-15.28,31.71-43.22,57.19-79.54,68.28C286.6,1034.57,213.57,995.71,192.5,926.7z"/><path fill="#354077" d="M186.93,893.38c0.2,2.56,0.61,7.62,1.11,12.19c-13.49,11.46-20.09,22.27-17.45,30.91    c7.18,23.51,79.91,22.14,162.45-3.06c82.54-25.21,143.63-64.7,136.45-88.22c-2.84-9.32-15.99-14.72-35.95-16.29    c-1.27-2.21-3.3-5.74-5.42-9.26c37.96-0.66,64.18,6.95,69.03,22.81c9.23,30.23-62.64,78.98-160.54,108.87    c-97.9,29.9-184.74,29.62-193.97-0.61C137.81,934.89,155.22,913.99,186.93,893.38z"/><path fill="#545e9b" d="M363.86,860.02c3.49,11.43,15.59,17.87,27.03,14.38c11.43-3.49,17.87-15.59,14.38-27.03    c-3.49-11.43-15.59-17.87-27.03-14.38C366.8,836.48,360.36,848.58,363.86,860.02z"/><path fill="#545e9b" d="M297.19,822.86c1.5,4.92,6.7,7.68,11.62,6.18c4.92-1.5,7.68-6.7,6.18-11.62c-1.5-4.92-6.7-7.68-11.62-6.18    C298.45,812.74,295.69,817.94,297.19,822.86z"/><path fill="#545e9b" d="M266.59,882.54c2.38,7.81,10.65,12.21,18.46,9.82c7.81-2.38,12.21-10.65,9.82-18.46    c-2.39-7.81-10.65-12.21-18.46-9.82C268.6,866.47,264.21,874.73,266.59,882.54z"/><path fill="#fff" d="M227.5,793.79c14.24-13.53,31.73-24.08,51.79-30.2c64.57-19.72,132.64,13.03,158.4,73.85    c-0.6-0.84-46.44-65.22-86.83-63.15c0,0,3.33,10.9-14.87,8.51c-18.2-2.38-12.15-13.76-4.44-14.53    C331.55,768.28,302.05,754.49,227.5,793.79z" opacity=".32"/></g><g><circle cx="1410.39" cy="1585.53" r="46.98" fill="#6876b8" transform="rotate(-52.079 1410.338 1585.464)"/><path fill="#545e9b" d="M1365.46,1599.25c-2.99-9.8-2.61-19.82,0.46-28.83c23.65,63.01,86.53,35.6,86.79,35.48    c-5.49,11.4-15.54,20.56-28.6,24.55C1399.3,1638.04,1373.04,1624.07,1365.46,1599.25z"/><path fill="#354077" d="M1363.46,1587.27c0.07,0.92,0.22,2.74,0.4,4.38c-4.85,4.12-7.22,8.01-6.27,11.12    c2.58,8.46,28.73,7.96,58.41-1.1c29.68-9.06,51.65-23.27,49.06-31.72c-1.02-3.35-5.75-5.29-12.92-5.86    c-0.46-0.8-1.19-2.07-1.95-3.33c13.65-0.24,23.08,2.5,24.82,8.2c3.32,10.87-22.52,28.4-57.73,39.15    c-35.2,10.75-66.43,10.65-69.75-0.22C1345.8,1602.2,1352.06,1594.68,1363.46,1587.27z"/><path fill="#545e9b" d="M1427.08,1575.28c1.26,4.11,5.61,6.43,9.72,5.17c4.11-1.26,6.43-5.61,5.17-9.72    c-1.26-4.11-5.61-6.43-9.72-5.17C1428.14,1566.81,1425.82,1571.16,1427.08,1575.28z"/><path fill="#545e9b" d="M1403.1,1561.91c0.54,1.77,2.41,2.76,4.18,2.22c1.77-0.54,2.76-2.41,2.22-4.18    c-0.54-1.77-2.41-2.76-4.18-2.22C1403.56,1558.28,1402.56,1560.15,1403.1,1561.91z"/><path fill="#545e9b" d="M1392.1,1583.38c0.86,2.81,3.83,4.39,6.64,3.53c2.81-0.86,4.39-3.83,3.53-6.64    c-0.86-2.81-3.83-4.39-6.64-3.53C1392.83,1577.6,1391.25,1580.57,1392.1,1583.38z"/><path fill="#fff" d="M1378.05,1551.46c5.12-4.87,11.41-8.66,18.62-10.86c23.22-7.09,47.69,4.69,56.96,26.56    c-0.22-0.3-16.7-23.45-31.22-22.71c0,0,1.2,3.92-5.35,3.06c-6.54-0.86-4.37-4.95-1.6-5.22    C1415.46,1542.29,1404.85,1537.33,1378.05,1551.46z" opacity=".32"/></g><path fill="#6876b8" d="M794.23,755.86L794.23,755.86L794.23,755.86c0.37-0.51,0.72-1.04,1.06-1.57l48.71-72.25l-41.75,33.59   l82.88-92.84l-97.09,82.32l39.28-46.07l-74.34,47.83c-2.35,1.15-4.55,2.57-6.56,4.22v0l0,0c-6.65,5.48-11.16,13.53-11.92,22.8   c-1.48,18.18,12.06,34.11,30.24,35.58C776.71,770.45,787.69,764.92,794.23,755.86z"/><path fill="#fff" d="M263.78,1054.81c-3.18-0.44-7.56-0.72-12.68,0c-5.8,0.81-10.39,2.59-13.48,4.08   c-7.69-17.84-25.33-29.44-44.76-29.44c-23.05,0-42.05,12.86-44.76,29.44h-15.32c-14.01,0-25.37,11.36-25.37,25.37   c0,14.01,11.36,25.37,25.37,25.37H264.6c13.82-1.48,24.45-12.49,25.37-25.37C291,1069.77,279.5,1056.14,263.78,1054.81z"/></svg>