
<svg xmlns="http://www.w3.org/2000/svg" viewBox="0 0 1920 1080"><path fill="#d7e7a0" d="M613.06,183.94c-38.72,14.44-76.7,30.69-110.89,51.86C379.73,311.62,315.89,458.53,364.51,588.62c28.23,75.55,90.56,145.35,164,193.12s158.06,80.82,243.73,106.38c120.61,36,247.19,54.09,371.28,43.16S1388.88,870.7,1458,781.82c12.93-16.63,24-34.57,31-54,9.6-26.72,11.19-55.41,12.2-83.78,1.42-40,1.81-80.36-6.31-120.16-20.12-98.7-92.4-187.68-183.87-250.31-99.2-67.92-221.17-109.83-342.33-126.16C884.05,136.06,720.53,143.86,613.06,183.94Z"/><ellipse cx="927.5" cy="926" fill="#a3ba3f" rx="524.5" ry="27"/><circle cx="294" cy="591" r="39" fill="#d7e7a0"/><circle cx="348" cy="746" r="27" fill="#d7e7a0"/><circle cx="268.5" cy="686.5" r="19.5" fill="#d7e7a0"/><circle cx="1375.5" cy="254.5" r="17.5" fill="#d7e7a0"/><circle cx="451" cy="177" r="22" fill="#d7e7a0"/><circle cx="510.5" cy="160.5" r="16.5" fill="#d7e7a0"/><circle cx="1115" cy="408" r="47" fill="#fbfff0" opacity=".41"/><circle cx="1017.93" cy="361.24" r="30.48" fill="#fbfff0" opacity=".41"/><circle cx="578.91" cy="208.29" r="30.48" fill="#fbfff0" opacity=".41"/><circle cx="527.47" cy="285.68" r="22.79" fill="#fbfff0" opacity=".41"/><circle cx="614.29" cy="272.5" r="16.6" fill="#fbfff0" opacity=".41"/><circle cx="1514.5" cy="830.5" r="25.5" fill="#d7e7a0"/><path fill="none" stroke="#d7e7a0" stroke-miterlimit="10" stroke-width="3" d="M321.5,493.5C325.07,494,318.24,7.13,1109,150"/><circle cx="848.93" cy="432.24" r="30.48" fill="#fbfff0" opacity=".41"/><path fill="none" stroke="#39631e" stroke-miterlimit="10" stroke-width="3" d="M1325.58,441.52c-2.33,59.91-26.24,116.6-49.79,171.75l-38.29,87.48"/><path fill="#a3ba3f" d="M1342.75,435c7.49-24.84,1.64-59.88-12.94-79.68-10.92-14.82-30.46-24-39.6-27.63a48.62,48.62,0,0,0-33.1,25.52c-9,18.34-5.35,41.65,7.5,57.51,11.14,13.75,28.39,22.46,36.46,38.21,3.7,7.2,7,18.82,14.78,22.68A68.74,68.74,0,0,0,1342.75,435Z"/><path fill="#8eaa27" d="M1344.91,357.8c-8.28-14.15-21.05-26.66-37.06-30.17a41.79,41.79,0,0,0-17.64,0c9.14,3.66,28.68,12.81,39.6,27.63,14.58,19.8,20.43,54.84,12.94,79.68a68.74,68.74,0,0,1-26.9,36.61,12.89,12.89,0,0,0,7.76,1.13c12.71-1.84,22.69-17.11,27.13-27.76A99.54,99.54,0,0,0,1344.91,357.8Z"/><path fill="none" stroke="#ebfffc" stroke-miterlimit="10" stroke-width="2" d="M1290.41,348.67c39.57,32,42.28,86.56,32,123.45"/><path fill="none" stroke="#39631e" stroke-miterlimit="10" stroke-width="3" d="M1412.28,461c-49.32,61.25-100,125.22-118.41,201.68,0,0-19.37,75.12-20.37,131.12"/><path fill="#8eaa27" d="M1561.31,385.52a49.76,49.76,0,0,0-2.78-17.71c-7.94-23.9-29.89-42.12-54.55-47.24s-51.23,2.33-70.82,18.16-32.26,39.48-36.44,64.31c-2.14,12.69-4,33.52-1.39,51.81,4.73-32.49,20.87-63.4,45.57-85.11,10.76-9.44,23.22-17.31,37.11-20.76s29.33-2.1,41.38,5.61c20.28,13,26.42,40.53,22.86,64.34-.41,2.72-.93,5.42-1.54,8.1a119.5,119.5,0,0,0,8.43-10.55C1555.65,407.31,1560.86,396.76,1561.31,385.52Z"/><path fill="#a3ba3f" d="M1519.39,354.59c-12.05-7.71-27.49-9-41.38-5.61s-26.35,11.32-37.11,20.76c-24.7,21.71-40.84,52.62-45.57,85.11,1.8,12.7,5.75,24.18,13.24,30.83,20.68,18.39,61.43-6.93,79.92-18.18,18.87-11.48,37.59-24.1,52.22-40.47.61-2.68,1.13-5.38,1.54-8.1C1545.81,395.12,1539.67,367.58,1519.39,354.59Z"/><path fill="none" stroke="#ebfffc" stroke-miterlimit="10" stroke-width="2" d="M1514.32,360.57c-44.43,29.11-78.25,69.65-111.39,111.09"/><path fill="none" stroke="#39631e" stroke-miterlimit="10" stroke-width="3" d="M1455,548.67C1403.26,560,1338.28,615,1317,663.43c0,0-38.52,86.32-46.52,154.32"/><path fill="#a3ba3f" d="M1424.31,588.57c17.6,3.82,35.88-1.4,52.6-8.11,19.5-7.82,38.79-18.25,51.49-35,8.12-10.7,12.91-24.48,12.48-37.73a108.14,108.14,0,0,0-11.71-4.3c-25.6-7.69-54.06-6.16-78.24,5.23-24.61,11.59-50.51,36.53-53.68,61.83A44.82,44.82,0,0,0,1424.31,588.57Z"/><path fill="#8eaa27" d="M1583.41,590.31c7.58-17.73,3.74-39.11-7.31-54.92-8.67-12.41-21.27-21.59-35.22-27.65.43,13.25-4.36,27-12.48,37.73-12.7,16.74-32,27.17-51.49,35-16.72,6.71-35,11.93-52.6,8.11a44.82,44.82,0,0,1-27.06-18.07c-1.67,13.36,3,26.81,17.55,38.45,28,22.4,66.78,27,102.26,21.79C1543.86,626.79,1572.77,615.22,1583.41,590.31Z"/><path fill="none" stroke="#ebfffc" stroke-miterlimit="10" stroke-width="2" d="M1397.29,574.5a125.59,125.59,0,0,1,160.25,8.75"/><path fill="none" stroke="#39631e" stroke-miterlimit="10" stroke-width="3" d="M1397.85,660.94c-25.2-3.21-48.95,3.56-70.17,27.93a119.58,119.58,0,0,0-21.25,35.81c-8.26,21.52-24.37,66.44-30.93,105.07"/><path fill="#a3ba3f" d="M1395.37,681c9.23,7.61,21.62,10.08,33.54,11.21,13.89,1.31,28.46,1,41-5a40.29,40.29,0,0,0,18.85-18.49,70.51,70.51,0,0,0-5.61-6.1c-12.78-12.33-30.06-20.08-47.81-20.71-18.06-.64-40.94,6.22-50.51,20.19A29.74,29.74,0,0,0,1395.37,681Z"/><path fill="#8eaa27" d="M1488.82,730.38c9.87-8.17,14.1-22,12.39-34.66-1.35-10-6-19.23-12.4-27.05A40.29,40.29,0,0,1,1470,687.16c-12.59,6-27.16,6.32-41,5-11.92-1.13-24.31-3.6-33.54-11.21a29.74,29.74,0,0,1-10.49-18.91c-5.05,7.38-6.39,16.75-1.33,28.05,9.73,21.76,31.23,36.27,53.78,44C1454.36,739.9,1475,741.86,1488.82,730.38Z"/><path fill="none" stroke="#ebfffc" stroke-miterlimit="10" stroke-width="2" d="M1386,660a83.42,83.42,0,0,1,92,53.91"/><g><path fill="#a3ba3f" d="M742.21,892.62c4.88-34.54-1.78-70.26-16.56-101.85S668,710.25,620.78,690.89c-18,97.55,43.26,172,88.4,201.4"/><path fill="none" stroke="#d5e2f1" stroke-linejoin="round" stroke-width="1.5" d="M620.78,690.89S722.91,760.4,733.4,889.06"/><path fill="none" stroke="#d5e2f1" stroke-linejoin="round" stroke-width="1.5" d="M620.78,690.89s72.64,98.31,96.68,201.4"/><path fill="none" stroke="#d5e2f1" stroke-linejoin="round" stroke-width="1.5" d="M620.78,690.89s24.37,119.85,96.93,206.84"/></g><g><path fill="#fff" d="M696.74,867.59c-5.25-21.62-6.25-45.91-25.91-60.15-10.87-7.87-25-4.52-37.46-4.21-21.24.52-37.92-9.57-48.85-27.6-4.37-7.21-10.91-14-19.3-14.9-12.48-1.27-23,11-35.49,11-6.74,0-12.91-3.46-19.23-5.82-15.26-5.7-32.77-1.43-32.77-1.43A55.59,55.59,0,0,1,488,791.07c1,10,3.28,20.43,8.47,29.27,4,6.91,9.86,10.94,17.27,13.53,8.72,3.06,15.5,5.85,21.49,13,9.24,11,12,46.76,30.46,43.16,5-1,9.59-4.24,14.86-3.74,9.55.89,9.6,12.62,14.36,18.65,7.34,9.27,19.06,17.87,30.11,18.57,26.37,1.66,56.52-11.42,78-27.4"/><path fill="none" stroke="#39631e" stroke-miterlimit="10" d="M478.56,765.64c48.52,20,82.49,66.7,131.48,85.53,14.7,5.64,30.3,8.58,45.27,13.45s29.82,12,39.83,24.19"/><path fill="none" stroke="#39631e" stroke-miterlimit="10" d="M554.59,762c9,17.23,19.63,44.68,25.76,73.75,0,0-35.2,6.86-49.89,6.42"/><path fill="none" stroke="#39631e" stroke-miterlimit="10" d="M544,767.1c9.29,19.22,14.87,36.25,23.27,59.67"/><path fill="none" stroke="#39631e" stroke-miterlimit="10" d="M526.26,771.12a256,256,0,0,1,11.51,32.67"/><path fill="none" stroke="#39631e" stroke-miterlimit="10" d="M498.6,763.27c.28,0,3,5.06,7.68,17.23"/><path fill="none" stroke="#39631e" stroke-miterlimit="10" d="M531.19,798.59c.13.1-26.19,1.66-41.87.86"/><path fill="none" stroke="#39631e" stroke-miterlimit="10" d="M562.55,823.27c-.12-.09-39.8,7.23-58.18,5.86"/><path fill="none" stroke="#39631e" stroke-miterlimit="10" d="M597.21,790.8c.55.48,16.28,33.46,22,63.54"/><path fill="none" stroke="#39631e" stroke-miterlimit="10" d="M606.51,849.74s-40.47,12.74-62.6,15.59"/><path fill="none" stroke="#39631e" stroke-miterlimit="10" d="M583.63,890.58c25.66-6,73.67-25.3,73.67-25.3s-12-45.9-23.93-62"/><path fill="none" stroke="#39631e" stroke-miterlimit="10" d="M681.78,876.89s-53.48,24-83.17,32.29"/><path fill="none" stroke="#39631e" stroke-miterlimit="10" d="M645.4,802s18.76,33.23,21.17,66.81"/><path fill="none" stroke="#39631e" stroke-miterlimit="10" d="M689,882.33s-38.63,27.81-79.12,35.93"/></g><g><path fill="#fff" d="M1254.5,872.65c3.47-22,2.49-46.27,20.93-62,10.19-8.73,24.59-6.54,37-7.25,21.21-1.21,37-12.63,46.44-31.48,3.77-7.55,9.73-14.9,18-16.43,12.34-2.28,23.77,9.09,36.28,8.1,6.72-.54,12.58-4.5,18.68-7.36,14.76-6.93,32.55-4.1,32.55-4.1a55.58,55.58,0,0,0-8.05,27.32c-.18,10.08-1.61,20.62-6,29.85-3.48,7.22-8.94,11.71-16.12,14.9-8.44,3.76-15,7.09-20.36,14.71-8.31,11.76-8.15,47.59-26.85,45.5-5.09-.57-9.89-3.45-15.11-2.52-9.44,1.67-8.54,13.36-12.8,19.76-6.55,9.83-17.53,19.36-28.49,21-26.15,3.8-57.27-6.78-80-21"/><path fill="none" stroke="#39631e" stroke-miterlimit="10" d="M1463.66,753.28c-46.73,23.91-76.78,73.19-124.09,96-14.19,6.82-29.49,11-44,17.09s-28.73,14.43-37.73,27.35"/><path fill="none" stroke="#39631e" stroke-miterlimit="10" d="M1387.59,755.87c-7.61,17.9-15.93,46.13-19.67,75.6,0,0,35.64,4,50.24,2.33"/><path fill="none" stroke="#39631e" stroke-miterlimit="10" d="M1398.57,760.06c-7.7,19.91-11.87,37.35-18.35,61.37"/><path fill="none" stroke="#39631e" stroke-miterlimit="10" d="M1416.56,762.62a257.3,257.3,0,0,0-8.81,33.5"/><path fill="none" stroke="#39631e" stroke-miterlimit="10" d="M1443.49,752.55c-.27.05-2.56,5.29-6.25,17.8"/><path fill="none" stroke="#39631e" stroke-miterlimit="10" d="M1413.89,790.4c-.12.11,26.24-.47,41.8-2.55"/><path fill="none" stroke="#39631e" stroke-miterlimit="10" d="M1384.64,817.56c.11-.1,40.25,4,58.46,1.1"/><path fill="none" stroke="#39631e" stroke-miterlimit="10" d="M1347.45,788c-.51.52-13.5,34.67-16.73,65.11"/><path fill="none" stroke="#39631e" stroke-miterlimit="10" d="M1343,847.52s41.37,9.4,63.66,10.44"/><path fill="none" stroke="#39631e" stroke-miterlimit="10" d="M1369.11,886.36c-26.07-3.93-75.49-19.22-75.49-19.22s8.27-46.73,18.8-63.79"/><path fill="none" stroke="#39631e" stroke-miterlimit="10" d="M1270.17,880.71s55.26,19.54,85.52,25.41"/><path fill="none" stroke="#39631e" stroke-miterlimit="10" d="M1300.33,803.08s-16,34.65-15.66,68.32"/><path fill="none" stroke="#39631e" stroke-miterlimit="10" d="M1263.43,886.72s40.77,24.57,81.78,29.36"/></g><g><path fill="#fff" stroke="#f27944" stroke-miterlimit="10" stroke-width="8" d="M960.58,372,900.23,476.29a6.47,6.47,0,0,0,5.6,9.71H1033a6.47,6.47,0,0,0,5.45-10l-66.8-104.31A6.48,6.48,0,0,0,960.58,372Z"/><text fill="#343a4a" font-family="ProximaNova-Bold,ProximaNova Bold" font-size="84.1" font-weight="700" transform="translate(956.08 468.63)">!</text></g><g><circle cx="831.37" cy="292.37" r="50.87" fill="#fff"/><path fill="none" stroke="#2b4f82" stroke-miterlimit="10" stroke-width="2" d="M816.5,277A14.46,14.46,0,1,1,831,291.41l-1,16.52"/><circle cx="830.66" cy="312.56" r="2.07" fill="none" stroke="#2b4f82" stroke-miterlimit="10" stroke-width="2"/><circle cx="780" cy="344" r="12" fill="#fff"/><circle cx="758" cy="363" r="6" fill="#fff"/></g><g><path fill="#7dbeea" d="M716.69,553.8c.37.91,25.14,133.61,22.22,137.33s-14.73,34.4-29.47,27.07S686,720.59,679.3,706.92s-36.42-159-39.24-180.17C638.1,512,707.87,532,716.69,553.8Z"/></g><g><polygon fill="#e88a5d" points="693.51 867.08 696 894.27 718.19 894.28 718.19 843.46 693.51 867.08"/><path fill="#7dbeea" d="M736.27,686.66c3.67,2.79,4,11.4,4,11.4l-9.72,177-41.21,5.87S677.07,717.31,679,706.62,705.89,663.53,736.27,686.66Z"/><path fill="none" stroke="#fff" stroke-miterlimit="10" d="M691.71,707c-.79,23.42,6.61,150.27,9.59,161.54"/></g><g><path fill="#504eaf" d="M691.83,889.81l3.5-2.65s2.31,4.83,5,5.37,16.13-1.76,16.13-1.76l1.72-10.22c-2.06.69,2.49,7.2,5.73,9.68s27.75,6.31,31,5.89,6.42,11.82,4.53,13.93-26.64,7.05-30.92,6.73-23.94,3.18-29.34,4-8.21-.32-9.13-6.64S691.83,889.81,691.83,889.81Z"/></g><g><path fill="#7dbeea" d="M676.61,588.57c0,.92-18.56,114-32.48,128.44-3.2,3.3-24.77,2.12-34.87-11s-21.64-4.64-22-19,26.18-139.36,32.31-157.86C623.83,516.28,677.67,566.59,676.61,588.57Z"/><path fill="none" stroke="#fff" stroke-miterlimit="10" d="M639.45,552.06c-10.71,2.63-19.41,72.55-25.52,110.51"/><path fill="none" stroke="#2b6a8e" stroke-miterlimit="10" d="M674.22,602.83s-17,88.3-23.36,101.11"/></g><g><polygon fill="#e88a5d" points="542.22 830.23 527.82 874.49 547.76 884.67 574.57 834.54 542.22 830.23"/><path fill="#7dbeea" d="M644.94,707.59c2.21,4.32-.85,12.21-.85,12.21l-75,148.39-41.23-17.86s52.56-157,58.48-165.63S626.63,671.87,644.94,707.59Z"/><path fill="none" stroke="#fff" stroke-miterlimit="10" d="M597,703.94c-9.83,20.68-51.6,134.78-53.32,146.37"/><line x1="569.07" x2="641.53" y1="868.19" y2="724" fill="none" stroke="#2b6a8e" stroke-miterlimit="10"/></g><g><path fill="#504eaf" d="M528.55,862.89l4.2-.65s.23,5.51,2.47,7.34,15.21,5.87,15.21,5.87,5.9-6.14,6-6.77-.94,6.74,1,10.6,22.72,19.53,25.81,20.76,1.24,13.86-1.3,14.81-26.89-6.94-30.65-9.36-23-9.08-28.18-11-7.32-4.39-5.71-10.55S528.55,862.89,528.55,862.89Z"/></g><g><path fill="#7dbeea" d="M720.08,571.61l3.19,22.16s-45.38,22.6-50.85,21.19-54.35-26.57-58.49-36.5-3-23.34,0-28.42S720.08,571.61,720.08,571.61Z"/><path fill="none" stroke="#2b6a8e" stroke-miterlimit="10" d="M681.72,574.14l-2.22,24.6A14.27,14.27,0,0,1,678,605c-1.11,1.85-3.38,3.18-5.42,2.5"/><path fill="none" stroke="#2b6a8e" stroke-miterlimit="10" d="M701.91,576.87c.6,4.12,1.23,8.31,3.09,12s5.18,7,9.29,7.6"/><path fill="none" stroke="#2b6a8e" stroke-miterlimit="10" d="M630.58,585.07c9.89.26,19.24-8.07,20.13-17.92"/><path fill="none" stroke="#fff" stroke-miterlimit="10" d="M628.9,561.16a157.83,157.83,0,0,0-2.19,23.37"/></g><g><path fill="#4a90ff" d="M710,436.58c1.09,6.34,3.5,14.24,5.38,20.44,3.69,12.2,5.54,30.28,10.12,42.24,3.77,9.81,1.4,15,5.94,24.46,2.79,5.8,11.42,10.58,17.7,11.92a18,18,0,0,0,17.11-5.26c1.79-2,6.4-12.13,6.59-23.66.42-25.42-16-74.61-17.68-78C751.6,421.27,747,415.4,736,412.44c-5.69-1.53-14.78,9.45-20.44,12.14S709.08,431.15,710,436.58Z"/></g><g><path fill="#f8ab84" d="M815.27,549.1s16.39,5.56,17.54,4.55,6.07-11.75,4.89-13.57-18.78-11.57-22.76-13.6C811.88,524.93,815.27,549.1,815.27,549.1Z"/><path fill="#4a90ff" d="M819.77,554s4.71-9.14,5.74-14,0-11.08,0-11.08c-.43-2.52-15-8.13-17.12-9.19-10.73-5.4-21.31-10.4-32.49-14.76-8.26-3.21-17-6.49-25.74-5.37s-17.49,8.27-17.06,17.11c.34,6.79,5.63,12.19,10.88,16.49,12.21,10,27.19,9.67,42.13,12.9C796.92,548.41,809.5,549.62,819.77,554Z"/></g><g><path fill="#4a90ff" d="M673.51,369.87c-7-.71-14.79-.18-19.73,4.79-6.4,6.42-5.09,16.95-3.34,25.84q3.81,19.32,7.63,38.64c.6,3.06,1.24,6.22,3,8.81,3.82,5.67,11.92,6.95,18.49,5.07s12.12-6.2,17.86-9.92c7.17-4.64,14.91-8.46,21.46-13.94,5.25-4.38,12.85-12.79,12.85-20.18s-8.23-14.35-13.23-18.87A79.84,79.84,0,0,0,673.51,369.87Z"/><path fill="#367add" d="M668.68,381.47c1.82-2.35,5.18-3,8.1-2.46s5.55,2,8.23,3.28c10.33,4.86,22.74,7,29.8,16,3.15,4,4.84,8.95,6.17,13.87a2.44,2.44,0,0,1,0,1.64c-.35.75-1.31.93-2.13,1-11.32,1-28.21.63-38.16-5.81C674.6,405.06,663.29,388.42,668.68,381.47Z"/><path fill="#ffb483" d="M726.57,408.64l-65.89-15.05s38.52,49.54,47.18,49.54S726.57,408.64,726.57,408.64Z"/><polygon fill="#f4f1eb" points="679.7 407.65 723.27 418.63 710.76 451.96 679.7 407.65"/><path fill="#4a90ff" d="M672.86,397s-10.51-7.6-19.82-2.81-16.61,13.15-16.1,29.89c1,32.81-14.26,90.35-28,119.22-5.86,12.32-2.34,19.57,13.76,23.91,44.8,12.07,97.13,17.53,106.66,14.49s.22-31.88.26-32,11.68-86.13,13-95.44c1.26-8.76,1.75-38.68-9.51-44.37-2.45-1.24-11.09-9.66-13.74-4.7-3.94,7.38-7.43,29.72-11,29.41C702.46,434.06,672.86,397,672.86,397Z"/><path fill="none" stroke="#2b4f82" stroke-miterlimit="10" d="M737.38,415.26a77.24,77.24,0,0,1,5.89,47.34l-5.89,30"/></g><g><path fill="#4a90ff" d="M664.8,425.77c-1,6.57-2.09,25.54-4.28,31.8s-1.59,40.78-12.86,59.63c-9.59,16-31,5.48-32.86,3.31s-6.46-22-6.43-33.13c.08-26.16,0-59.63,11.53-80.66A27.69,27.69,0,0,1,637.58,393c11-2.45,22.52,5,26.78,14.67C667.05,413.81,665.76,419.55,664.8,425.77Z"/><path fill="none" stroke="#2b4f82" stroke-miterlimit="10" d="M663.73,420.8c1.07,26.08.07,39.54-5.13,65.19"/><path fill="none" stroke="#2b4f82" stroke-miterlimit="10" d="M620.16,406.89c-11.43,25.83-16.07,72.86-8.68,103,1,4.19,2.43,8.59,5.95,11.37a20.68,20.68,0,0,0,5.13,2.73,82.11,82.11,0,0,0,10.53,3.47"/></g><g><path fill="#fcad82" d="M694,355.09l-17.5,47.82,38,7.8,6.88-34.46s2-7.58-.79-12.27C716.53,357.11,697.75,345.49,694,355.09Z"/><path fill="#ef8152" d="M715.86,403.46a208.39,208.39,0,0,1-12-23c-2.74-6.41-2.33-9.15-2.33-9.15l19.21,7.83Z"/></g><g><path fill="#343a4a" d="M747.7,333.3a10.83,10.83,0,0,1,.52,6.45,15,15,0,0,1-6.27,10c-3.4,2.17-8.13,2.41-11.42.06a5.61,5.61,0,0,1-1.71-1.82,6.31,6.31,0,0,1-.53-4c.49-3.45,2.4-6.51,4.26-9.46C735.84,329.32,744.23,325.76,747.7,333.3Z"/><path fill="none" stroke="#2f2822" stroke-miterlimit="10" d="M743.85,333.39a6.2,6.2,0,0,1,2.18,4.23,10.44,10.44,0,0,1-.75,4.77,15.89,15.89,0,0,1-4.29,6.22"/><path fill="#fcad82" d="M734.87,367c-4.41,15.23-7.71,22.61-22.22,17.81-10.53-3.48-22.48-16.68-19.77-32.31,1.15-6.63,2-20.52,5.44-24.57,4.89-5.69,21.34-1.22,27.7,0C743.65,331.37,739.79,350,734.87,367Z"/><path fill="#fcad82" stroke="#ef8152" stroke-miterlimit="10" stroke-width="2" d="M723.66,352.61a4.56,4.56,0,0,0,.67,4.36,11.31,11.31,0,0,0,3.51,2.93,4.83,4.83,0,0,1-7,3.71"/><path fill="#2f2822" d="M737.26,350.62a1.93,1.93,0,0,1-2.1.54,5.81,5.81,0,0,1-3.15-2.08,1.92,1.92,0,0,1-.48-1.25,1.65,1.65,0,0,1,1.44-1.46,2.44,2.44,0,0,1,1.76.77C735.54,347.88,737.77,349.92,737.26,350.62Z"/><path fill="#2f2822" d="M713.91,345.45c-.6.39-1.27,1.05-1.08,1.76s.83.74,1.39.75a8.91,8.91,0,0,0,4.43-1.15c.21-.12,3.16-1.86,2.58-2.93S715.21,344.58,713.91,345.45Z"/><path fill="#343a4a" d="M694.44,352.37l-.59,4.72,3.49-11.66s1.54.84,2.31-2.92a7.44,7.44,0,0,1,1.93-3.62,9,9,0,0,1,1.13-1,9.31,9.31,0,0,0,3.66-7.42v-.14a2.29,2.29,0,0,1,1.91-2.28,6.2,6.2,0,0,1,5.48,2.07s15.46,7.68,21.28.66c0,0,5.72,1.37,6.75-4.41.87-4.87,1.42-9.29-4.28-13.08a13.54,13.54,0,0,0-7.74-2.24,12.32,12.32,0,0,0-4.66.76s-24.29-5.4-29.53,10.15c0,0-9.55-3.46-10.76,7.19s3.93,13.33,3.93,13.33l.69,10.83Z"/><path fill="#fcad82" stroke="#ef8152" stroke-miterlimit="10" stroke-width=".75" d="M697.69,348.85a8.83,8.83,0,0,0-4.93-7.11,7.13,7.13,0,0,0-7.3.55c-2,1.56-2.77,4.23-2.91,6.76a10.43,10.43,0,0,0,1.05,5.68,8.64,8.64,0,0,0,4.36,3.65,10.82,10.82,0,0,0,10.23-1.32"/><path fill="#fcad82" stroke="#ef8152" stroke-miterlimit="10" stroke-width="2" d="M689.19,345.62a6.92,6.92,0,0,1,5.28,6.63l-.87-1a5.65,5.65,0,0,0-2.53-2,2,2,0,0,0-2.54,1.35"/><path fill="#2f2822" d="M697.35,337.7a7.06,7.06,0,0,1-3.9.86c-.32,0-.32.47,0,.5a7.51,7.51,0,0,0,4.15-.93.25.25,0,0,0-.25-.43Z"/><path fill="#2f2822" d="M696.44,339.33a10.21,10.21,0,0,1-3.26.77c-.32,0-.33.53,0,.5a10.74,10.74,0,0,0,3.39-.79.25.25,0,0,0,.18-.3.26.26,0,0,0-.31-.18Z"/><path fill="#2f2822" d="M706.52,330.34a8.5,8.5,0,0,0-5-6c-.3-.13-.43.36-.14.48a7.94,7.94,0,0,1,4.65,5.65c.07.31.55.18.49-.14Z"/><path fill="#2f2822" d="M738.85,321.57c-1.54,3.82-3.29,8.12-6.93,10.41-3.84,2.41-8.89,1.41-12.95.16a23.92,23.92,0,0,1-7.09-3.4c-.26-.18-.51.25-.25.44a23.9,23.9,0,0,0,6.48,3.21,29.18,29.18,0,0,0,7,1.49,12.21,12.21,0,0,0,6.39-1.07,12.48,12.48,0,0,0,4.56-4.34,36.77,36.77,0,0,0,3.3-6.76c.12-.3-.36-.43-.48-.14Z"/><path fill="#2f2822" d="M739.41,329.32a6.61,6.61,0,0,1-5.24,2.16c-.32,0-.32.49,0,.5a7.07,7.07,0,0,0,5.59-2.31c.21-.24-.14-.59-.35-.35Z"/><path fill="#2f2822" d="M737.9,328.25a6.44,6.44,0,0,1-4.09,3.64.25.25,0,0,0,.13.48,7,7,0,0,0,4.45-4c.12-.29-.36-.42-.49-.13Z"/><path fill="#2f2822" d="M742.05,340.72a11.3,11.3,0,0,1-1.95,6.85c-.19.26.25.51.43.25a11.79,11.79,0,0,0,2-7.1c0-.32-.51-.32-.5,0Z"/><path fill="#2f2822" d="M689.41,326.12a8.82,8.82,0,0,0-3.15,6.21c0,.32.48.32.5,0a8.37,8.37,0,0,1,3-5.86c.25-.2-.1-.55-.35-.35Z"/><path fill="#2f2822" d="M687.39,334.41l.75,2.18a.26.26,0,0,0,.31.18.25.25,0,0,0,.17-.31l-.74-2.19a.27.27,0,0,0-.31-.17.25.25,0,0,0-.18.31Z"/><path fill="#343a4a" d="M739.39,337.91a7.1,7.1,0,0,1-12.64-5.67c-6.34.75-13.77,1.12-18-3.66.9,2.55-.79,5.45-3.16,6.75a10.42,10.42,0,0,1-9.21,0,20.44,20.44,0,0,1-7.22-6.12c-2.3-2.9-4.26-6.35-4.12-10.05s3.11-7.45,6.81-7.29a9.54,9.54,0,0,1,17.65-1.11,10.21,10.21,0,0,1,17.84,1.42A11.39,11.39,0,0,1,741.5,330c2.53-2.37,7.13-1.17,8.87,1.84s1,7-1.07,9.77c-1.71,2.33-4.54,4.09-7.38,3.61s-5.06-3.93-3.63-6.43"/><path fill="#2f2822" d="M735.5,325.55a7.44,7.44,0,0,1-6.35,8c-.63.06-.64,1.06,0,1a8.43,8.43,0,0,0,7.35-9c-.07-.63-1.07-.64-1,0Z"/><path fill="#2f2822" d="M706.15,324.85l-2-4.45a.51.51,0,0,0-.69-.18.53.53,0,0,0-.18.69l2,4.44a.5.5,0,0,0,.69.18.51.51,0,0,0,.18-.68Z"/><path fill="#2f2822" d="M701.21,331c-.4,1.22-.85,2.75-2,3.47-.78.49-2.11.61-2.66-.28-.34-.54-1.21,0-.87.5a2.93,2.93,0,0,0,3.86.75c1.53-.8,2.16-2.64,2.66-4.17.19-.62-.77-.88-1-.27Z"/><path fill="#2f2822" d="M694.23,318.51a.5.5,0,0,0,0-1,.5.5,0,0,0,0,1Z"/><path fill="#2f2822" d="M744.15,336a4.6,4.6,0,0,1-5.41,3.69c-.63-.15-.89.81-.27,1a5.61,5.61,0,0,0,6.65-4.39.52.52,0,0,0-.35-.61.51.51,0,0,0-.62.35Z"/><path fill="#2f2822" d="M726.76,314a4.16,4.16,0,0,1-1.77-2,8.78,8.78,0,0,0-1.52-2.32,2.82,2.82,0,0,0-2.23-.85,2.08,2.08,0,0,0-1.84,1.32c-.22.6.75.87,1,.27a1.23,1.23,0,0,1,1.36-.59,2.47,2.47,0,0,1,1.59,1.24c.88,1.33,1.37,3.05,2.93,3.77.58.27,1.09-.59.51-.86Z"/></g><g><path fill="#fcad82" stroke="#ef8152" stroke-miterlimit="10" stroke-width="2" d="M712.6,370.25s6.65-3.05,10.11,2.31"/></g><g><path fill="#3d2e2c" d="M732.41,355.59a1.61,1.61,0,1,1-.91-2.08A1.61,1.61,0,0,1,732.41,355.59Z"/></g><g><path fill="#3d2e2c" d="M718.72,353.34a1.61,1.61,0,0,1-3-1.17,1.61,1.61,0,0,1,3,1.17Z"/></g><g><path fill="#a05e17" d="M1066.31,540.21l18.2-15.4c22.47-22.46,46.66-15.55,46.66-15.55H1221c15.56,3.46,15,19.8,15,19.8l14.42,368.35c.83,18.72-9.27,30.87-25.6,30.81l-539.07-2c-6.57,0-14.12-8.57-14.08-15.93l2-342.48c.08-13.61,7.84-22.25,20-22.25l362.78-1.73h0A15.09,15.09,0,0,0,1066.31,540.21Z"/><path fill="#f7c026" d="M673.24,914.11l132.93-269a31.72,31.72,0,0,1,28.51-17.48h373.68l30.85-25.58A58.62,58.62,0,0,1,1273,591.34h91.83c13,0,21.87,13,16.81,24.72l-124,288a40.49,40.49,0,0,1-37.42,24.2l-539.06-1.6A8.73,8.73,0,0,1,673.24,914.11Z"/><line x1="816.67" x2="687.07" y1="649.23" y2="913.61" fill="none" stroke="#a05e17" stroke-miterlimit="10"/><rect width="143.55" height="19.01" x="863.2" y="675.15" fill="none" stroke="#a05e17" stroke-miterlimit="10" rx="5.5"/><ellipse cx="1053" cy="814.36" fill="none" stroke="#a05e17" stroke-miterlimit="10" rx="68.96" ry="53.81" transform="rotate(-19.1 1052.744 814.212)"/><line x1="1018.85" x2="1081.06" y1="782.28" y2="842.76" fill="none" stroke="#a05e17" stroke-miterlimit="10"/><line x1="1010.21" x2="1098.34" y1="842.76" y2="789.2" fill="none" stroke="#a05e17" stroke-miterlimit="10"/></g><g><path fill="#ffb483" d="M844.5,561.39c6.65,5,8.31-5,8.31-5l1.66-14.95-5-13.3a7.28,7.28,0,0,0-6.65-5l-21.61-1.66s-15,1.66-13.3,15c0,0,1.67,8.31,16.63,5l3.32,3.32v13.3s3.32,3.32,5,0c0,0,0,10,5,5,0,0,3.33,3.33,5,1.67Z"/><line x1="832.92" x2="832.92" y1="542.94" y2="557.89" fill="none" stroke="#34394a" stroke-miterlimit="10"/><line x1="839.67" x2="839.41" y1="544.99" y2="560.38" fill="none" stroke="#34394a" stroke-miterlimit="10"/><line x1="846.74" x2="846.38" y1="544.07" y2="560.38" fill="none" stroke="#34394a" stroke-miterlimit="10"/><path fill="#ffb483" d="M816.05,523l-8.55,14.5,4,16s6,3,5-7l6-15Z"/></g><g><path fill="#ffb483" d="M771.61,565.51c6.67,5,8.34-5,8.34-5l1.66-15-5-13.33a7.29,7.29,0,0,0-6.67-5l-21.67-1.67s-15,1.67-13.33,15c0,0,1.66,8.34,16.67,5l3.33,3.34v13.33s3.33,3.34,5,0c0,0,0,10,5,5,0,0,3.34,3.33,5,1.66Z"/><line x1="760" x2="760" y1="547" y2="562" fill="none" stroke="#34394a" stroke-miterlimit="10"/><line x1="766.77" x2="766.5" y1="549.06" y2="564.5" fill="none" stroke="#34394a" stroke-miterlimit="10"/><line x1="773.86" x2="773.5" y1="548.14" y2="564.5" fill="none" stroke="#34394a" stroke-miterlimit="10"/></g><g><path fill="#ffb483" d="M729,520.37s21.07,6.85,21.48,8.77-2.77,16.7-5.38,17.66-28.12-2.5-33.76-3.47C707,542.58,729,520.37,729,520.37Z"/><line x1="728.99" x2="750.25" y1="520.37" y2="527.92" fill="none" stroke="#754d3b" stroke-miterlimit="10"/><path fill="#4a90ff" d="M737.38,518.78s-2.17,13-4.87,18.8S724,548.93,724,548.93c-2.37,2.24-21.62-3.15-24.61-3.68-15.14-2.67-29.82-5.64-44.63-9.74-10.93-3-22.35-6.31-30.51-14.19s-11.62-21.87-4.4-30.61c5.53-6.7,15.1-8.2,23.78-8.59,20.18-.92,35.3,10.9,53.09,19C709.63,507,723.47,515.43,737.38,518.78Z"/><path fill="none" stroke="#2b4f82" stroke-miterlimit="10" d="M626.67,523.47s15,9.68,43.85,16.07c22.48,5,53.34,9.16,53.34,9.16s7.87-7.29,10.34-15.8a102.68,102.68,0,0,0,3.18-14.12s-20-7.22-32.69-13.8c-11.33-5.89-41-19.73-44.47-20.81"/><path fill="none" stroke="#2b4f82" stroke-miterlimit="10" d="M638,481c4.77-1.19,10.53.77,15.19,2.33a38.89,38.89,0,0,0-12.31,3.76"/></g></svg>