
<svg xmlns="http://www.w3.org/2000/svg" data-name="Layer 1" viewBox="0 0 500 500"><path fill="#b17900" d="M115.71,306.76a11.91,11.91,0,0,1-11.83-10.64c-6-55.56,2.49-103.86,24-136a11.92,11.92,0,1,1,19.83,13.24c-18.37,27.51-25.51,70.21-20.1,120.21A11.92,11.92,0,0,1,117,306.69h0A11.2,11.2,0,0,1,115.71,306.76Z"/><path fill="#b17900" d="M104.51,294c-3.86,14.54,8.33,32.91,17.63,39.21,6.14,4.15,8.48.34,6.94-4.15-.94-2.74-5-6.57-4.51-9,7.54,8.36,13,10.19,14.9,8,3.5-4-3-7-6.81-15.88,8.42,3.85,13.23,3.18,14,.51,1.48-5.15-6.64-6.39-11.94-12.1,0,0-2.8-13.66-11.47-16.73S106.24,287.49,104.51,294Z"/><rect width="41.57" height="68.03" x="116.98" y="305.64" fill="#bee2f4" rx="2.97" transform="rotate(-18.43 137.805 339.71)"/><rect width="2.68" height="14.54" x="126.95" y="309.88" fill="#fff" transform="rotate(-18.42 128.277 317.115)"/><rect width="3.94" height="22.04" x="143.18" y="304.38" fill="#fff" transform="rotate(-18.44 145.135 315.36)"/><rect width="2.68" height="14.54" x="131.95" y="325.19" fill="#fff" transform="rotate(-18.44 133.264 332.402)"/><rect width="2.68" height="14.54" x="137.06" y="340.53" fill="#fff" transform="rotate(-18.44 138.362 347.74)"/><rect width="2.68" height="14.54" x="142.18" y="355.88" fill="#fff" transform="rotate(-18.44 143.49 363.084)"/><rect width="6.31" height="68.03" x="126.24" y="308.42" fill="#42a1d3" transform="rotate(-18.43 129.414 342.493)"/><path fill="#b17900" d="M112.29,306.65c1.2,11.56,9,16.82,13.08,14.75s-.76-9.28-.91-13.54S111.54,299.35,112.29,306.65Z"/><path fill="#b17900" d="M244.67,411.92a11.91,11.91,0,0,1-9.78-5.1c-32.16-46-35-96.1-7.89-141.13A11.92,11.92,0,1,1,247.43,278h0c-28.1,46.75-11.7,88.44,7,115.19a11.93,11.93,0,0,1-9.76,18.75Z"/><path fill="#b17900" d="M243.22,387.4c-14.91.51-42.9,19.53-42.63,29.67s61.9,8.11,61.9,0S258.65,386.87,243.22,387.4Z"/><path fill="#b17900" d="M333.92,411.92a11.93,11.93,0,0,1-9.78-5.09c-32.16-46-35-96.11-7.89-141.14A11.92,11.92,0,0,1,336.69,278h0c-28.11,46.75-11.71,88.44,7,115.19a11.93,11.93,0,0,1-9.76,18.76Z"/><path fill="#b17900" d="M332.47,387.4c-14.91.51-42.89,19.53-42.62,29.67s61.9,8.11,61.9,0S347.9,386.87,332.47,387.4Z"/><path fill="#f3cb75" d="M427.38,271.83H160.05A15.65,15.65,0,0,1,145.18,259L120.35,105.6c-1.14-7.07,3.66-12.8,10.73-12.8l267.33,0a15.64,15.64,0,0,1,14.87,12.8L438.11,259C439.26,266.1,434.45,271.83,427.38,271.83Z"/><path fill="#d28d00" d="M421,227.54H362.33a2.37,2.37,0,0,1-2.26-1.95l-1.82-11.25a1.62,1.62,0,0,1,1.25-1.92,1.58,1.58,0,0,1,.38,0h58.69a2.39,2.39,0,0,1,2.27,2l1.82,11.25a1.63,1.63,0,0,1-1.25,1.92A1.71,1.71,0,0,1,421,227.54Z"/><polygon fill="#fff" points="427.26 254.02 332.37 254.02 329.63 237.05 424.51 237.05 427.26 254.02"/><path fill="#d28d00" d="M351.37,227.54H292.68a2.38,2.38,0,0,1-2.27-1.95l-1.82-11.25a1.62,1.62,0,0,1,1.25-1.92,1.71,1.71,0,0,1,.39,0h58.69a2.4,2.4,0,0,1,2.27,2L353,225.59a1.63,1.63,0,0,1-1.25,1.92A1.29,1.29,0,0,1,351.37,227.54Z"/><path fill="#d28d00" d="M281.71,227.54H223a2.39,2.39,0,0,1-2.27-1.95l-1.82-11.25a1.63,1.63,0,0,1,1.25-1.92,1.71,1.71,0,0,1,.39,0h58.69a2.39,2.39,0,0,1,2.27,2l1.82,11.25a1.63,1.63,0,0,1-1.25,1.92A1.29,1.29,0,0,1,281.71,227.54Z"/><path fill="#d28d00" d="M212.05,227.54H153.36a2.37,2.37,0,0,1-2.26-1.95l-1.82-11.25a1.62,1.62,0,0,1,1.25-1.92,1.58,1.58,0,0,1,.38,0H209.6a2.39,2.39,0,0,1,2.27,2l1.82,11.25a1.63,1.63,0,0,1-1.25,1.92A1.71,1.71,0,0,1,212.05,227.54Z"/><path fill="#fff" d="M302.94,191.18c-3.43-9.39-14.37-14.07-24.54-14s-19.37,4.72-20,14Z"/><path fill="#d28d00" d="M196.81,114.21a25.17,25.17,0,0,1-13.37-3.79,3.85,3.85,0,1,1,4.1-6.51h0a17.61,17.61,0,0,0,16.89.83c3.15-1.62,7-5,7.43-12.16a3.85,3.85,0,1,1,7.68.46c-.51,8.38-4.62,15-11.59,18.54A24.35,24.35,0,0,1,196.81,114.21Z"/><path fill="#d28d00" d="M206.24,168.13c-14.13,0-29.48-8.35-34.12-24.71a6.41,6.41,0,0,1,12.33-3.51c3.43,12.07,16.33,17.15,26.3,14.93,4.62-1,12.09-4.5,10.2-16.22a6.41,6.41,0,1,1,12.65-2.05c2.5,15.44-5.38,27.52-20.07,30.78A33.08,33.08,0,0,1,206.24,168.13Z"/><path fill="#d28d00" d="M338.34,114.2a28.28,28.28,0,0,1-7.43-1,30.83,30.83,0,0,1-20.72-19,3.85,3.85,0,0,1,7.18-2.77A23.19,23.19,0,0,0,333,105.75c5.16,1.41,10.26.8,13.3-1.61a3.85,3.85,0,1,1,4.78,6A20.38,20.38,0,0,1,338.34,114.2Z"/><path fill="#d28d00" d="M345.61,168.14c-15.35,0-32-9.8-35.23-29.52A6.41,6.41,0,0,1,323,136.57c2.18,13.51,14.39,19.67,24.82,18.64,3.1-.31,13.2-2.19,12.75-13.29a6.41,6.41,0,0,1,6.15-6.66,6.48,6.48,0,0,1,6.66,6.15c.58,14.37-9.19,25-24.28,26.56C348,168.08,346.79,168.14,345.61,168.14Z"/><path fill="#b17900" d="M438.29,313.52a11.9,11.9,0,0,1-9.73-5C404.24,274.18,391.87,212,401,169.86a11.92,11.92,0,0,1,23.31,5h0c-7.75,35.86,3.12,90.73,23.73,119.81a11.92,11.92,0,0,1-9.72,18.82Z"/><path fill="#b17900" d="M427.26,303.88c.3,15,17.09,29.33,27.77,32.82,7.05,2.3,8.24-2,5.53-5.9-1.66-2.37-6.6-4.95-6.84-7.45,9.56,5.95,15.35,6.2,16.55,3.62,2.25-4.84-4.81-5.93-10.93-13.39,9.15,1.38,13.59-.59,13.59-3.37,0-5.37-8.15-4.31-14.81-8.33,0,0-6.46-12.36-15.64-12.92S427.13,297.15,427.26,303.88Z"/><path fill="#d76b79" d="M71.39,127.06a6.64,6.64,0,0,1-4.72-2L29.06,87.5A6.68,6.68,0,1,1,38.44,78l.06.06,37.61,37.61a6.68,6.68,0,0,1-4.72,11.4Z"/><path fill="#d76b79" d="M33.78,127.06a6.68,6.68,0,0,1-4.72-11.4L66.67,78.05a6.68,6.68,0,0,1,9.44,9.45L38.5,125.1A6.64,6.64,0,0,1,33.78,127.06Z"/></svg>